<?xml version="1.0" standalone="no"?>
<!DOCTYPE svg PUBLIC "-//W3C//DTD SVG 20010904//EN"
 "http://www.w3.org/TR/2001/REC-SVG-20010904/DTD/svg10.dtd">
<svg version="1.0" xmlns="http://www.w3.org/2000/svg"
 width="256.000000pt" height="256.000000pt" viewBox="0 0 256.000000 256.000000"
 preserveAspectRatio="xMidYMid meet">
<metadata>
Created by potrace 1.11, written by Peter Selinger 2001-2013
</metadata>
<g transform="translate(0.000000,256.000000) scale(0.100000,-0.100000)"
fill="#000000" stroke="none">
<path d="M540 2374 c-36 -7 -108 -35 -160 -60 -134 -66 -238 -171 -304 -304
-61 -124 -80 -213 -73 -350 8 -153 58 -288 146 -391 20 -24 276 -281 567 -572
494 -491 532 -527 564 -527 32 0 70 36 564 527 291 291 547 548 567 572 122
142 176 375 135 571 -42 201 -183 383 -366 474 -208 102 -411 102 -620 -1 -76
-37 -110 -61 -171 -122 -41 -42 -83 -87 -92 -101 l-17 -25 -17 25 c-9 14 -51
59 -92 101 -162 162 -404 232 -631 183z"/>
</g>
</svg>
